#define ac_width 16
#define ac_height 16
static char ac_bits[] = {
  0xFF, 0xF8, 0xF0, 0xF6, 0x6F, 0x0F, 0x1F, 0xFF, 0x00, 0x00, 0x00, 0x00, 
  0x00, 0x00, 0x00, 0x00, 0x00, 0x00, 0x00, 0x00, 0x00, 0x00, 0x00, 0x00, 
  0x00, 0x00, 0x00, 0x00, 0x00, 0x00, 0x00, 0x00, };
