#define ac_width 28
#define ac_height 7
static unsigned char ac_bits[] = {
   0xff, 0x3f, 0xf8, 0x0f, 0xff, 0x3f, 0xfe, 0x0f, 0x00, 0x38, 0xff, 0x0f,
   0x00, 0xf8, 0x03, 0x00, 0xff, 0xff, 0x07, 0x00, 0xff, 0xcf, 0xff, 0x0f,
   0xff, 0xc3, 0xff, 0x0f };
