#define ac_01_width 16
#define ac_01_height 16
static char ac_01_bits[] = {
  0x00, 0x0F, 0x00, 0x0F, 0xC0, 0x0F, 0xC0, 0x1C, 0x30, 0xFC, 0x3D, 0xFC, 
  0x3F, 0x0C, 0x3F, 0x0C, 0x3F, 0x0C, 0x3F, 0x1C, 0x79, 0x7C, 0x20, 0xFC, 
  0x20, 0x8C, 0xC0, 0x0F, 0x80, 0x0F, 0x00, 0x0F, };
