#define arch_width 16
#define arch_height 16
static char arch_bits[] = {
  0xC0, 0x01, 0xC0, 0x01, 0xC0, 0x01, 0xE0, 0x01, 0xF0, 0x01, 0xF0, 0x03, 
  0xF0, 0x07, 0xF0, 0x03, 0x7C, 0x0F, 0x38, 0x0F, 0x1C, 0x0C, 0x3E, 0x1E, 
  0x7F, 0x3F, 0x3F, 0x3E, 0x03, 0x38, 0x07, 0x30, };
