#define arch_10x10_width 16
#define arch_10x10_height 16
static char arch_10x10_bits[] = {
  0xC0, 0x00, 0xC0, 0x00, 0xC0, 0x00, 0xE0, 0x01, 0xE0, 0x03, 0xE0, 0x03, 
  0xF0, 0x07, 0xF8, 0x07, 0xF8, 0x07, 0xFC, 0x1F, 0xBC, 0x1F, 0x1E, 0x1E, 
  0x1E, 0x1E, 0x0F, 0x3C, 0x0F, 0x7C, 0x03, 0x20, };
