#define art_width 16
#define art_height 10
static char art_bits[] = {
  0x00, 0x06, 0x00, 0x0F, 0x00, 0x07, 0xC0, 0x07, 0xC0, 0x01, 0xE0, 0x00, 
  0xF8, 0x00, 0x78, 0x00, 0x18, 0x00, 0x08, 0x00, };
