#define audioHigh_width 30
#define audioHigh_height 30
static unsigned char audioHigh_bits[] = {
   0x00, 0x00, 0x00, 0x00, 0x00, 0x00, 0x00, 0x00, 0x00, 0x00, 0x00, 0x00,
   0x00, 0x00, 0x00, 0x00, 0x00, 0xc0, 0x00, 0x00, 0x00, 0xa0, 0x00, 0x00,
   0x00, 0xb0, 0x00, 0x00, 0x00, 0x88, 0x80, 0x00, 0x00, 0x86, 0x80, 0x01,
   0x00, 0x87, 0x88, 0x01, 0x00, 0x83, 0x18, 0x01, 0x70, 0x83, 0x10, 0x03,
   0x70, 0x83, 0x30, 0x03, 0x70, 0x83, 0x30, 0x03, 0x70, 0x83, 0x30, 0x03,
   0x70, 0x83, 0x30, 0x03, 0x70, 0x83, 0x30, 0x03, 0x70, 0x83, 0x30, 0x03,
   0x70, 0x83, 0x10, 0x03, 0x00, 0x83, 0x18, 0x01, 0x00, 0x87, 0x88, 0x01,
   0x00, 0x86, 0x80, 0x01, 0x00, 0x98, 0x80, 0x00, 0x00, 0xf0, 0x00, 0x00,
   0x00, 0xe0, 0x00, 0x00, 0x00, 0xc0, 0x00, 0x00, 0x00, 0x00, 0x00, 0x00,
   0x00, 0x00, 0x00, 0x00, 0x00, 0x00, 0x00, 0x00, 0x00, 0x00, 0x00, 0x00 };
