#define audio_volume_muted_width 35
#define audio_volume_muted_height 35
static unsigned char audio_volume_muted_bits[] = {
   0x00, 0x00, 0x00, 0x00, 0x00, 0x00, 0x00, 0x00, 0x00, 0x00, 0x00, 0x00,
   0x00, 0x00, 0x00, 0x00, 0x00, 0x00, 0x00, 0x00, 0x00, 0x00, 0x00, 0x00,
   0x00, 0x00, 0x00, 0x06, 0x00, 0x00, 0x00, 0x80, 0x07, 0x00, 0x00, 0x00,
   0xc0, 0x07, 0x00, 0x00, 0x00, 0x60, 0x06, 0x00, 0x00, 0x00, 0x30, 0x06,
   0x00, 0x00, 0x00, 0x1c, 0x06, 0x00, 0x00, 0x00, 0x0c, 0x06, 0x00, 0x00,
   0x00, 0x04, 0x06, 0x00, 0x00, 0xe0, 0x04, 0x06, 0x00, 0x00, 0xe0, 0x04,
   0x06, 0x00, 0x00, 0xe0, 0x04, 0x06, 0x00, 0x00, 0xe0, 0x04, 0x06, 0x00,
   0x00, 0xe0, 0x04, 0x06, 0x00, 0x00, 0xe0, 0x04, 0x06, 0x00, 0x00, 0xe0,
   0x04, 0x06, 0x00, 0x00, 0xe0, 0x04, 0x06, 0x00, 0x00, 0xe0, 0x04, 0x06,
   0x00, 0x00, 0x00, 0x04, 0x06, 0x00, 0x00, 0x00, 0x0c, 0x06, 0x00, 0x00,
   0x00, 0x1c, 0x06, 0x00, 0x00, 0x00, 0x30, 0x06, 0x00, 0x00, 0x00, 0x60,
   0x06, 0x00, 0x00, 0x00, 0xc0, 0x07, 0x00, 0x00, 0x00, 0x80, 0x07, 0x00,
   0x00, 0x00, 0x00, 0x06, 0x00, 0x00, 0x00, 0x00, 0x00, 0x00, 0x00, 0x00,
   0x00, 0x00, 0x00, 0x00, 0x00, 0x00, 0x00, 0x00, 0x00, 0x00, 0x00, 0x00,
   0x00, 0x00, 0x00, 0x00, 0x00, 0x00, 0x00 };
