#define bat_low_02_width 16
#define bat_low_02_height 16
static char bat_low_02_bits[] = {
  0x00, 0x00, 0x00, 0x00, 0xD7, 0x1B, 0xFF, 0x3F, 0x0F, 0x7C, 0x03, 0xF8, 
  0x37, 0xF0, 0x33, 0xF0, 0x33, 0xF0, 0x07, 0xF0, 0x07, 0x70, 0x13, 0x30, 
  0xFF, 0x3F, 0xFF, 0x3D, 0x00, 0x00, 0x00, 0x00, };
