#define bat_empty_02_width 16
#define bat_empty_02_height 16
static char bat_empty_02_bits[] = {
  0x00, 0x00, 0x00, 0x00, 0xD7, 0x2B, 0xFF, 0x3F, 0x07, 0x3C, 0x03, 0x78, 
  0x07, 0xF0, 0x03, 0xF0, 0x03, 0xF0, 0x07, 0xF8, 0x07, 0x70, 0x07, 0x30, 
  0x7F, 0x3F, 0xEF, 0x1D, 0x00, 0x00, 0x00, 0x00, };
