#define bat_full_01_width 16
#define bat_full_01_height 16
static char bat_full_01_bits[] = {
  0xE0, 0x03, 0xE0, 0x0F, 0xF8, 0x1F, 0xFC, 0x3F, 0x08, 0x10, 0x0C, 0x30, 
  0x9C, 0x13, 0xC8, 0x37, 0xCC, 0x33, 0xE8, 0x33, 0xCC, 0x13, 0x8C, 0x33, 
  0x1C, 0x70, 0x9C, 0x3C, 0xF8, 0x1F, 0xFC, 0x3F, };
