#define bat_empty_01_width 16
#define bat_empty_01_height 16
static char bat_empty_01_bits[] = {
  0xE0, 0x03, 0xE0, 0x0F, 0xF8, 0x2F, 0xFC, 0x3F, 0x0C, 0x3C, 0x0C, 0x38, 
  0x0C, 0x10, 0x08, 0x30, 0x0C, 0x30, 0x08, 0x38, 0x1C, 0x10, 0x0C, 0x30, 
  0x0C, 0x70, 0x9C, 0x3D, 0xF8, 0x1F, 0xFC, 0x3F, };
