#define bat_full_02_width 16
#define bat_full_02_height 16
static char bat_full_02_bits[] = {
  0x00, 0x00, 0x00, 0x00, 0xB7, 0x1D, 0xFF, 0x3F, 0x07, 0x3C, 0x63, 0xF8, 
  0xF7, 0xF3, 0xF3, 0xF3, 0xF3, 0xF3, 0xE7, 0xF3, 0x23, 0x70, 0x07, 0x30, 
  0xFF, 0x3F, 0xFF, 0x1B, 0x00, 0x00, 0x00, 0x00, };
