#define battery20_width 16
#define battery20_height 10
static char battery20_bits[] = {
  0xFF, 0x3F, 0x03, 0x34, 0x03, 0xF0, 0x0D, 0xE0, 0x07, 0x90, 0x05, 0xB0, 
  0x07, 0xF0, 0x05, 0xE0, 0x13, 0x70, 0xFF, 0x3F, };
