#define battery60_width 16
#define battery60_height 10
static char battery60_bits[] = {
  0xFF, 0x1F, 0x0B, 0x30, 0x79, 0xE0, 0xFD, 0xA0, 0xFD, 0x80, 0xFD, 0xC0, 
  0xF9, 0xE0, 0xF9, 0xE0, 0x01, 0x30, 0xFF, 0x3F, };
