#define battery_width 16
#define battery_height 16
static char battery_bits[] = {
  0xC0, 0x07, 0xC0, 0x03, 0xF8, 0x2F, 0xFC, 0x3F, 0x1C, 0x38, 0x0C, 0x30, 
  0x8C, 0x13, 0xC8, 0x33, 0xCC, 0x33, 0xEC, 0x3B, 0xC8, 0x13, 0x9C, 0x31, 
  0x0C, 0x38, 0x1C, 0x32, 0xF8, 0x1F, 0xFC, 0x3F, };
