#define battery30_width 16
#define battery30_height 10
static char battery30_bits[] = {
  0xFF, 0x3F, 0x09, 0x30, 0x0B, 0xE0, 0x0D, 0xE0, 0x0F, 0x90, 0x0D, 0xB0, 
  0x0F, 0xE0, 0x09, 0xF0, 0x13, 0x70, 0xFF, 0x3F, };
