#define battery50_width 16
#define battery50_height 10
static char battery50_bits[] = {
  0xFF, 0x1F, 0x03, 0x10, 0x3D, 0xF0, 0x39, 0xA0, 0x79, 0xB0, 0x7D, 0xA0, 
  0x7F, 0xA0, 0x79, 0xF0, 0x0B, 0x30, 0xFF, 0x3F, };
