#define battery90_width 16
#define battery90_height 10
static char battery90_bits[] = {
  0xFF, 0x1F, 0x03, 0x20, 0xF9, 0x27, 0xF9, 0xA7, 0xFD, 0xA7, 0xFD, 0xA7, 
  0xF9, 0xC7, 0xF9, 0xE7, 0x01, 0x20, 0xFF, 0x3F, };
