#define battery80_width 16
#define battery80_height 10
static char battery80_bits[] = {
  0xFF, 0x3F, 0x03, 0x20, 0xF9, 0x21, 0xFD, 0xE3, 0xFD, 0xE3, 0xFD, 0xA3, 
  0xF9, 0xC3, 0xF9, 0xE3, 0x01, 0x20, 0xFF, 0x3F, };
