#define battery70_width 16
#define battery70_height 10
static char battery70_bits[] = {
  0xFF, 0x3F, 0x03, 0x20, 0xF9, 0xE0, 0xFD, 0xA1, 0xFD, 0xB1, 0xFD, 0xA1, 
  0xF9, 0xE1, 0xF9, 0xF1, 0x01, 0x00, 0xFF, 0x3F, };
