#define battery10_width 16
#define battery10_height 10
static char battery10_bits[] = {
  0xFF, 0x3F, 0x23, 0x30, 0x01, 0xE0, 0x01, 0xF0, 0x01, 0xB0, 0x01, 0xB0, 
  0x01, 0xF0, 0x01, 0xE0, 0x0B, 0x70, 0xFF, 0x3F, };
