#define battery40_width 16
#define battery40_height 10
static char battery40_bits[] = {
  0xFF, 0x3F, 0x01, 0x30, 0x1D, 0xF0, 0x3D, 0xE0, 0x3F, 0x80, 0x1D, 0xB0, 
  0x3D, 0xE0, 0x3D, 0xF0, 0x33, 0x30, 0xFF, 0x3F, };
