#define bluetooth_width 16
#define bluetooth_height 16
static char bluetooth_bits[] = {
  0xC0, 0x03, 0xC0, 0x07, 0xE4, 0x0F, 0xE8, 0x18, 0xF8, 0x3E, 0xF0, 0x1E, 
  0xE0, 0x1F, 0xC0, 0x0F, 0xE0, 0x0F, 0xE0, 0x1F, 0xF0, 0x1F, 0xF8, 0x3E, 
  0xFC, 0x1D, 0xE0, 0x03, 0xC0, 0x07, 0xE0, 0x03, };
