#define bug_02_width 16
#define bug_02_height 16
static char bug_02_bits[] = {
  0x0F, 0xF0, 0x0F, 0xF0, 0x01, 0x48, 0x30, 0x0C, 0x30, 0x0C, 0xA0, 0x0C, 
  0xC7, 0xF7, 0xEF, 0xF3, 0xF8, 0x0F, 0xF0, 0x1F, 0xF8, 0x1F, 0xFC, 0x3F, 
  0xE5, 0xE3, 0x47, 0xE3, 0x04, 0x20, 0x0C, 0x10, };
