#define bug_01_width 16
#define bug_01_height 16
static char bug_01_bits[] = {
  0x0F, 0xF0, 0x0F, 0xB0, 0x20, 0x08, 0x30, 0x0C, 0xC0, 0x01, 0xC4, 0x03, 
  0xC7, 0xE3, 0xC7, 0xF3, 0xF0, 0x07, 0xF0, 0x1F, 0xF8, 0x1F, 0xFC, 0x3F, 
  0xFB, 0xFF, 0xF3, 0xC7, 0xE3, 0xE7, 0xC3, 0xC3, };
