#define calendar_width 16
#define calendar_height 10
static char calendar_bits[] = {
  0xF4, 0x0F, 0xFF, 0xFF, 0xBF, 0xDE, 0x01, 0x80, 0x01, 0xC0, 0x01, 0xC0, 
  0x01, 0xC0, 0x01, 0xC0, 0x13, 0xD0, 0xFF, 0xFF, };
