#define cat_width 16
#define cat_height 16
static char cat_bits[] = {
  0x03, 0xC0, 0x03, 0xC0, 0x07, 0xE0, 0x0F, 0xE0, 0xE3, 0xC6, 0xF7, 0xEF, 
  0xFF, 0xFF, 0xEF, 0xFF, 0xC3, 0xE3, 0xE3, 0xE3, 0xF7, 0xFF, 0xFF, 0xFF, 
  0xFC, 0x3F, 0xF8, 0x1F, 0xF1, 0xCF, 0xF3, 0xCF, };
