#define clock_width 16
#define clock_height 16
static char clock_bits[] = {
  0xE0, 0x0F, 0xF0, 0x0F, 0xF8, 0x13, 0xFC, 0x33, 0xFF, 0xF9, 0x7F, 0xFC, 
  0x3F, 0xFE, 0x3F, 0xFA, 0x3F, 0xC0, 0x3F, 0xC0, 0xFF, 0xFA, 0xFF, 0xFF, 
  0xFC, 0x1F, 0xF8, 0x1F, 0xF0, 0x0F, 0xF0, 0x0F, };
