#define code_width 16
#define code_height 10
static char code_bits[] = {
  0x20, 0x00, 0xE0, 0x00, 0xE0, 0x00, 0xC0, 0x01, 0xC0, 0x03, 0xC0, 0x03, 
  0xC0, 0x07, 0xE0, 0x07, 0x60, 0x0E, 0x70, 0x1C, };
