#define corner_left_width 13
#define corner_left_height 16
static char corner_left_bits[] = {
  0xFC, 0x1F, 0xFF, 0x1F, 0xFF, 0x1F, 0xFF, 0x1F, 0xFF, 0x1F, 0xFE, 0x1F, 
  0xFC, 0x1F, 0xF0, 0x1F, 0xF0, 0x1F, 0xE0, 0x1F, 0xC0, 0x1F, 0x80, 0x1F, 
  0x00, 0x1E, 0x00, 0x1E, 0x00, 0x1C, 0x00, 0x1C, };
