#define corner_right_width 13
#define corner_right_height 16
static char corner_right_bits[] = {
  0x07, 0x00, 0x07, 0x00, 0x0F, 0x00, 0x1F, 0x00, 0x3F, 0x00, 0x7F, 0x00, 
  0xFF, 0x00, 0xFF, 0x03, 0xFF, 0x01, 0xFF, 0x07, 0xFF, 0x0F, 0xFF, 0x1F, 
  0xFF, 0x1F, 0xFF, 0x1F, 0xFF, 0x1F, 0xFF, 0x0F, };
