#define dish_width 16
#define dish_height 16
static char dish_bits[] = {
  0x07, 0xC0, 0x03, 0xC0, 0xCF, 0x95, 0xCF, 0x3F, 0x3E, 0x10, 0x3C, 0x30, 
  0xFC, 0x10, 0xF8, 0x31, 0xF8, 0x31, 0xF0, 0x0F, 0xF8, 0x0F, 0xFC, 0x1F, 
  0x3F, 0x3F, 0x3F, 0x7F, 0x0F, 0xF8, 0x0F, 0xF0, };
