#define diskette_width 16
#define diskette_height 16
static char diskette_bits[] = {
  0xFF, 0xFF, 0xFF, 0xFF, 0x07, 0xE0, 0x03, 0xC0, 0x03, 0xC0, 0x03, 0xC0, 
  0x03, 0xE0, 0x07, 0xC0, 0xF3, 0xC7, 0xF3, 0xC7, 0x73, 0xEF, 0x13, 0xCF, 
  0x13, 0xCF, 0xB3, 0xDF, 0xFC, 0xFF, 0xFC, 0xFF, };
