#define docs_width 16
#define docs_height 10
static char docs_bits[] = {
  0xF0, 0x07, 0xF0, 0x03, 0x10, 0x0F, 0x10, 0x0E, 0x30, 0x1C, 0x30, 0x08, 
  0x38, 0x0C, 0x10, 0x0C, 0x70, 0x1E, 0xF8, 0x0F, };
