#define empty_width 16
#define empty_height 16
static char empty_bits[] = {
  0xF0, 0x1F, 0xF8, 0x0F, 0x1C, 0x3E, 0x05, 0xB0, 0x07, 0xC0, 0x03, 0xC0, 
  0x03, 0xE0, 0x07, 0xC0, 0x03, 0xC0, 0x07, 0xC0, 0x03, 0xC0, 0x03, 0xE0, 
  0x0F, 0x70, 0x18, 0x1A, 0xF0, 0x0F, 0xF0, 0x1F, };
