#define eye_r_width 16
#define eye_r_height 16
static char eye_r_bits[] = {
  0x00, 0x00, 0x00, 0x00, 0x00, 0x00, 0x00, 0x00, 0xC0, 0xF3, 0x80, 0xF3, 
  0x00, 0x78, 0x00, 0x38, 0x00, 0x38, 0x00, 0x38, 0x03, 0x1C, 0x87, 0x47, 
  0xFF, 0xC3, 0xFF, 0xE3, 0x8E, 0x70, 0x00, 0x30, };
