#define eye_l_width 16
#define eye_l_height 16
static char eye_l_bits[] = {
  0x00, 0x00, 0x00, 0x00, 0x00, 0x00, 0x02, 0x00, 0xEF, 0x03, 0xDF, 0x03, 
  0x1F, 0x00, 0x0C, 0x00, 0x1C, 0x00, 0x0C, 0x00, 0x38, 0x40, 0x20, 0xE0, 
  0xC3, 0xFF, 0xC7, 0xFF, 0x8F, 0x61, 0x0E, 0x00, };
