#define fox_width 16
#define fox_height 16
static char fox_bits[] = {
  0x03, 0xC0, 0x03, 0xC0, 0x0F, 0xE0, 0x0F, 0xF0, 0xFF, 0xE7, 0xE7, 0xFF, 
  0xFF, 0xFF, 0xFF, 0xFF, 0xC7, 0xE7, 0xC7, 0xE3, 0xCF, 0xF3, 0xFF, 0xF7, 
  0xFC, 0x7F, 0xF8, 0x0F, 0xC0, 0x03, 0xC0, 0x03, };
