#define fs_02_width 16
#define fs_02_height 16
static char fs_02_bits[] = {
  0x03, 0xFF, 0x03, 0xFF, 0x87, 0x7B, 0xC7, 0x03, 0xE7, 0x07, 0x77, 0x1F, 
  0x3F, 0x1C, 0x3F, 0x1C, 0x3C, 0xFC, 0x38, 0xFC, 0xF0, 0xFF, 0xE0, 0xC7, 
  0xC8, 0xF1, 0xFC, 0xE1, 0xFF, 0xC0, 0xFF, 0xC0, };
