#define fs_01_width 16
#define fs_01_height 16
static char fs_01_bits[] = {
  0x3C, 0x10, 0x78, 0x20, 0xE1, 0x81, 0xE3, 0xC3, 0xE0, 0xCF, 0xF8, 0xEF, 
  0x78, 0x3E, 0x3C, 0x3C, 0x3C, 0x3C, 0x3C, 0x3C, 0xF9, 0x0F, 0xF7, 0x0F, 
  0xC3, 0xC3, 0xC7, 0x0F, 0x04, 0x1E, 0x08, 0x3C, };
