#define full_width 16
#define full_height 16
static char full_bits[] = {
  0xF0, 0x0F, 0xF0, 0x0F, 0xF8, 0x1F, 0xFC, 0x3F, 0xFF, 0x7F, 0xFF, 0xFF, 
  0xFF, 0xFF, 0xFF, 0xFF, 0xFF, 0xFF, 0xFF, 0xFF, 0xFF, 0xFF, 0xFE, 0xFF, 
  0xFC, 0x1F, 0xF8, 0x1F, 0xF0, 0x0F, 0xF8, 0x0F, };
