#define games_width 16
#define games_height 10
static char games_bits[] = {
  0x00, 0x00, 0x00, 0x00, 0x20, 0x04, 0xF0, 0x07, 0xF0, 0x0F, 0xFC, 0x3F, 
  0xFC, 0x1F, 0xF8, 0x3F, 0x34, 0x25, 0x70, 0x07, };
