#define grid_width 16
#define grid_height 16
static char grid_bits[] = {
  0x00, 0x00, 0x00, 0x00, 0x00, 0x10, 0xDE, 0x71, 0xCE, 0x71, 0x8C, 0x71, 
  0x84, 0x21, 0x8E, 0x79, 0x8E, 0x73, 0x9C, 0x01, 0x00, 0x30, 0xDE, 0x71, 
  0xCE, 0x71, 0x08, 0x20, 0x00, 0x00, 0x00, 0x00, };
