#define half_width 16
#define half_height 16
static char half_bits[] = {
  0xF0, 0x0F, 0xF0, 0x0F, 0xF8, 0x1A, 0xFC, 0x00, 0xFF, 0xC0, 0xFF, 0xC0, 
  0xFF, 0xE0, 0xFF, 0xC0, 0xFF, 0xC0, 0xFF, 0xC0, 0xFF, 0xE0, 0xFF, 0xC0, 
  0xFC, 0x30, 0xF8, 0x01, 0xF0, 0x07, 0xF0, 0x0F, };
