#define info_02_width 16
#define info_02_height 16
static char info_02_bits[] = {
  0xFF, 0xFF, 0xFF, 0xFE, 0x3F, 0xFE, 0x3F, 0xFC, 0x7F, 0xFC, 0xBF, 0xFD, 
  0x1F, 0xF8, 0x3F, 0xFC, 0x1F, 0xFC, 0x3F, 0xF8, 0x1F, 0xFC, 0x3F, 0xF8, 
  0x3F, 0xFC, 0x3F, 0xFC, 0x7F, 0xFE, 0xFF, 0xFF, };
