#define info_03_width 16
#define info_03_height 16
static char info_03_bits[] = {
  0xC0, 0x0F, 0xE0, 0x0F, 0xC0, 0x0F, 0xC0, 0x07, 0x80, 0x01, 0x40, 0x02, 
  0xE0, 0x07, 0xF0, 0x0F, 0xF0, 0x0F, 0xC0, 0x0F, 0xC0, 0x0F, 0xE0, 0x0F, 
  0xC0, 0x0F, 0xE0, 0x1F, 0xF0, 0x1F, 0xF0, 0x3F, };
