#define info_01_width 16
#define info_01_height 16
static char info_01_bits[] = {
  0xE0, 0x0F, 0xF0, 0x0F, 0x38, 0x1E, 0x3C, 0x38, 0xFF, 0xFF, 0xFF, 0xFF, 
  0x3F, 0xFC, 0x3F, 0xFC, 0x3F, 0xFC, 0x3F, 0xFC, 0x3F, 0xFC, 0x1F, 0x78, 
  0x3C, 0x3C, 0x38, 0x1C, 0xF0, 0x0F, 0xF0, 0x0F, };
