#define lan_width 16
#define lan_height 10
static char lan_bits[] = {
  0xC0, 0x0F, 0xC0, 0x0E, 0xC0, 0x0F, 0xC0, 0x07, 0x88, 0xDF, 0xFC, 0xBB, 
  0x3C, 0xF0, 0x7E, 0xFC, 0x7C, 0xDC, 0x7E, 0xFC, };
