#define layout_full_width 16
#define layout_full_height 10
static char layout_full_bits[] = {
  0xFF, 0xFF, 0x03, 0xC0, 0x01, 0x80, 0x01, 0x80, 0x03, 0x80, 0x01, 0x80, 
  0x01, 0x80, 0x01, 0x80, 0x8B, 0xC0, 0xFF, 0xFF, };
