#define layout_tall_width 16
#define layout_tall_height 10
static char layout_tall_bits[] = {
  0xFF, 0xFF, 0xC1, 0xC1, 0x81, 0x81, 0x01, 0x81, 0x81, 0xF7, 0x81, 0xDD, 
  0x01, 0x81, 0x81, 0x81, 0x83, 0xC0, 0xFF, 0xFF, };
