#define layout_mirror_tall_width 16
#define layout_mirror_tall_height 10
static char layout_mirror_tall_bits[] = {
  0xFF, 0xFF, 0x01, 0xC0, 0x01, 0x80, 0x01, 0x80, 0x9B, 0xFA, 0x97, 0xD5, 
  0x01, 0x80, 0x81, 0x80, 0x83, 0xE1, 0xFF, 0xFF, };
