#define mail_width 16
#define mail_height 16
static char mail_bits[] = {
  0x00, 0x00, 0x00, 0x00, 0xF7, 0x6B, 0xFE, 0x7F, 0xFC, 0x3F, 0xFC, 0x9F, 
  0xFB, 0xCF, 0xF7, 0xFF, 0xFF, 0xF3, 0xCF, 0xF7, 0x3F, 0xFE, 0x3F, 0xFC, 
  0x7F, 0xFE, 0x6F, 0xFD, 0x00, 0x00, 0x00, 0x00, };
