#define media_width 16
#define media_height 10
static char media_bits[] = {
  0x00, 0x00, 0xDC, 0x3F, 0xEC, 0x25, 0xE4, 0x20, 0xC4, 0x11, 0xC4, 0x31, 
  0xC4, 0x31, 0xEC, 0x19, 0x7C, 0x3F, 0x08, 0x00, };
