#define mem_width 16
#define mem_height 16
static char mem_bits[] = {
  0xCC, 0xCC, 0x40, 0xC0, 0x00, 0x80, 0x00, 0x00, 0xF0, 0x7F, 0xFC, 0xFF, 
  0xFC, 0xFF, 0xF8, 0xFF, 0xFC, 0xFF, 0xF8, 0xFF, 0xFC, 0xFF, 0xF8, 0xFF, 
  0x00, 0x00, 0x00, 0x00, 0x40, 0xC0, 0xC8, 0xCC, };
