#define mouse_01_width 16
#define mouse_01_height 16
static char mouse_01_bits[] = {
  0xFC, 0xFC, 0xF8, 0xFC, 0x7C, 0xFC, 0x7C, 0xF8, 0xFC, 0xFE, 0xB8, 0xF8, 
  0x0C, 0xC0, 0x08, 0xE0, 0xF8, 0xFF, 0xFC, 0xFF, 0xFC, 0xFF, 0xFC, 0xFF, 
  0xF8, 0xFF, 0xF8, 0xFF, 0xF0, 0x1F, 0xF0, 0x3F, };
