#define music_width 16
#define music_height 10
static char music_bits[] = {
  0xFC, 0x1F, 0x0C, 0x1D, 0x06, 0x18, 0x04, 0x18, 0x04, 0x1C, 0x04, 0x0E, 
  0x0E, 0x0E, 0x0E, 0x0E, 0x0F, 0x00, 0x07, 0x00, };
