#define net_up_01_width 16
#define net_up_01_height 16
static char net_up_01_bits[] = {
  0xC0, 0x03, 0xC0, 0x07, 0xF0, 0x0F, 0xF0, 0x0F, 0xF8, 0x3F, 0xFD, 0x7F, 
  0xFF, 0xFF, 0xFF, 0xBF, 0xF0, 0x8F, 0xF0, 0x0F, 0xF0, 0x0F, 0xF0, 0x0F, 
  0xF0, 0x0F, 0xE0, 0x1F, 0xE0, 0x1F, 0xC0, 0x3F, };
