#define net_up_02_width 16
#define net_up_02_height 16
static char net_up_02_bits[] = {
  0xC0, 0x07, 0xC0, 0x03, 0xF0, 0x07, 0xF0, 0x0F, 0xF8, 0x3F, 0xFD, 0x7F, 
  0xFF, 0xFF, 0xFF, 0xBF, 0xF0, 0x1F, 0xF0, 0x0F, 0xF0, 0x0F, 0xF0, 0x0F, 
  0xF0, 0x0F, 0xF0, 0x0F, 0xFC, 0x07, 0xF8, 0x03, };
