#define net_down_02_width 16
#define net_down_02_height 16
static char net_down_02_bits[] = {
  0xC0, 0x3F, 0xC0, 0x1F, 0xE0, 0x0F, 0xF0, 0x0F, 0xF0, 0x0F, 0xF8, 0x0F, 
  0xF0, 0x0F, 0xF0, 0x1F, 0xFD, 0xFF, 0xFD, 0xFF, 0xFE, 0xBF, 0xFC, 0x1F, 
  0xF8, 0x0F, 0xE0, 0x0F, 0xC0, 0x07, 0xC0, 0x03, };
