#define net_wired_width 16
#define net_wired_height 16
static char net_wired_bits[] = {
  0x00, 0x00, 0x00, 0x00, 0xA0, 0x00, 0xF0, 0x03, 0xE0, 0x03, 0xF8, 0x07, 
  0xFF, 0x1F, 0xFF, 0x3F, 0xFF, 0x3F, 0xFF, 0x3F, 0xFF, 0x1F, 0xFF, 0x3F, 
  0x3F, 0x37, 0xFB, 0x17, 0xFF, 0x1F, 0xFF, 0x3F, };
