#define net_up_03_width 16
#define net_up_03_height 16
static char net_up_03_bits[] = {
  0x00, 0x03, 0x00, 0x07, 0x80, 0x0F, 0xE0, 0x1F, 0xF0, 0x1F, 0xF8, 0x7F, 
  0xFC, 0xFF, 0xF8, 0xFF, 0xE0, 0xCF, 0xC0, 0x0F, 0xC0, 0x0F, 0xE0, 0x0F, 
  0xC0, 0x0F, 0xC0, 0x0F, 0xE0, 0x0F, 0xC0, 0x0F, };
