#define net_down_03_width 16
#define net_down_03_height 16
static char net_down_03_bits[] = {
  0xC0, 0x0F, 0xC0, 0x0F, 0xE0, 0x07, 0xC0, 0x0F, 0xC0, 0x1F, 0xC0, 0x0F, 
  0xC0, 0x0F, 0xE0, 0x1F, 0xF8, 0xFF, 0xF8, 0xFF, 0xF0, 0xBF, 0xF0, 0x1F, 
  0xE0, 0x0F, 0x80, 0x0F, 0x00, 0x07, 0x00, 0x03, };
