#define net_down_01_width 16
#define net_down_01_height 16
static char net_down_01_bits[] = {
  0xFC, 0x03, 0xF8, 0x03, 0xF8, 0x0F, 0xF0, 0x07, 0xF0, 0x07, 0xF8, 0x07, 
  0xF0, 0x1F, 0xF0, 0x1F, 0xFE, 0x7F, 0xFE, 0xFF, 0xFE, 0x7F, 0xFC, 0x1F, 
  0xF8, 0x0F, 0xE0, 0x0F, 0xC0, 0x07, 0xC0, 0x03, };
