#define next_width 16
#define next_height 16
static char next_bits[] = {
  0x80, 0x01, 0x80, 0x01, 0x81, 0x07, 0x87, 0x07, 0x8F, 0x0F, 0x9F, 0x1F, 
  0x9F, 0x7F, 0xFF, 0xFF, 0xFF, 0xFF, 0x9F, 0x3F, 0x8F, 0x7F, 0x87, 0x0F, 
  0x83, 0x07, 0x83, 0x07, 0x80, 0x01, 0x80, 0x01, };
