#define note_width 16
#define note_height 16
static char note_bits[] = {
  0xF0, 0xFF, 0xF0, 0xFF, 0xF0, 0xFF, 0xF0, 0xFF, 0x60, 0xE0, 0x30, 0xE0, 
  0x10, 0xE0, 0x30, 0xC0, 0x10, 0xC0, 0x30, 0xC0, 0x30, 0xC0, 0x12, 0xE0, 
  0x1E, 0xF8, 0x3F, 0xFC, 0x3F, 0xFC, 0x3F, 0xFC, };
