#define pacman_width 16
#define pacman_height 16
static unsigned char pacman_bits[] = {
   0xf0, 0x0f, 0xf0, 0x0f, 0xf8, 0x1f, 0x7c, 0x3c, 0x7f, 0x7c, 0x7f, 0x7c,
   0xff, 0x7f, 0x7f, 0x7c, 0x7f, 0x00, 0xff, 0x00, 0xff, 0x01, 0xff, 0x03,
   0xfc, 0x3f, 0xf8, 0x1f, 0xf0, 0x0f, 0xf0, 0x0f };
