#define pacman_width 16
#define pacman_height 16
static char pacman_bits[] = {
  0xF0, 0x0F, 0xF0, 0x0F, 0xF8, 0x1F, 0x7C, 0x3C, 0x7F, 0xF8, 0x3F, 0xFC, 
  0xFF, 0xFF, 0x7F, 0xFC, 0x7F, 0x00, 0x7F, 0x00, 0xFF, 0x01, 0xFF, 0x03, 
  0xFC, 0x3F, 0xF8, 0x1F, 0xF0, 0x0F, 0xF0, 0x0F, };
