#define pause_width 16
#define pause_height 16
static char pause_bits[] = {
  0xE0, 0xE3, 0xE0, 0xF7, 0xE0, 0xFF, 0xE0, 0xE7, 0xE0, 0xFF, 0xE0, 0xE7, 
  0xC0, 0xF3, 0xC0, 0xF7, 0xE0, 0xF7, 0xE0, 0xF7, 0xE0, 0xF7, 0xC0, 0xE7, 
  0xC0, 0xE7, 0xE0, 0xF7, 0xE0, 0xF7, 0xE0, 0xF3, };
