#define phones_width 16
#define phones_height 16
static char phones_bits[] = {
  0xF0, 0x0F, 0xF0, 0x0F, 0x14, 0x22, 0x04, 0x20, 0x03, 0x60, 0x03, 0xC0, 
  0x03, 0xE0, 0x03, 0xC0, 0x23, 0xC0, 0x3F, 0xFC, 0x3F, 0xF8, 0x1F, 0xFC, 
  0x1F, 0xFC, 0x3F, 0xFC, 0x3E, 0x3C, 0x3C, 0x3C, };
