#define pics_width 16
#define pics_height 10
static char pics_bits[] = {
  0x00, 0x00, 0xFC, 0x37, 0x06, 0x60, 0x00, 0x48, 0x06, 0x7C, 0x9E, 0x7D, 
  0xFE, 0x7F, 0xFE, 0x7F, 0x7E, 0x3F, 0x00, 0x00, };
