#define play_width 16
#define play_height 16
static char play_bits[] = {
  0x80, 0x01, 0xC0, 0x03, 0x80, 0x03, 0x80, 0x07, 0x80, 0x1F, 0x80, 0x1F, 
  0x80, 0x7F, 0xC0, 0xFF, 0x80, 0xFF, 0x80, 0x7F, 0x80, 0x3F, 0xC0, 0x1F, 
  0x80, 0x0F, 0x80, 0x03, 0x80, 0x03, 0x80, 0x01, };
