#define playpause_width 16
#define playpause_height 16
static char playpause_bits[] = {
  0x03, 0xE8, 0x07, 0xC0, 0x07, 0xC8, 0x0F, 0xD8, 0x1F, 0xD8, 0x7F, 0xC8, 
  0x7F, 0xC4, 0xFF, 0xC8, 0xFF, 0xCC, 0x7F, 0xC8, 0x3F, 0xE8, 0x1F, 0xC8, 
  0x0F, 0xF8, 0x07, 0xC8, 0x03, 0x88, 0x03, 0xC8, };
