#define plug_width 16
#define plug_height 16
static char plug_bits[] = {
  0x0F, 0x00, 0x1F, 0x00, 0xBF, 0x00, 0xFF, 0x01, 0xFE, 0x01, 0xFC, 0x07, 
  0xFC, 0x0F, 0xF8, 0x0F, 0xF8, 0x0F, 0xE0, 0x0F, 0xE0, 0x1B, 0xC0, 0x3F, 
  0x00, 0xCE, 0x00, 0xF8, 0x00, 0xF0, 0x00, 0xF0, };
