#define prev_width 16
#define prev_height 16
static char prev_bits[] = {
  0x80, 0x01, 0xC0, 0x01, 0xC0, 0x41, 0xE0, 0xE1, 0xF0, 0xF1, 0xFC, 0xF1, 
  0xFC, 0xFF, 0xFF, 0xFF, 0xFF, 0xFF, 0xFE, 0xFF, 0xF8, 0xF1, 0xF8, 0xE1, 
  0xF0, 0xE1, 0xC0, 0x81, 0x80, 0x01, 0x80, 0x01, };
