#define rwd_width 16
#define rwd_height 16
static char rwd_bits[] = {
  0x00, 0x00, 0x00, 0x00, 0x80, 0x00, 0xC0, 0x38, 0xF0, 0x3C, 0xF0, 0x3F, 
  0xFC, 0x3F, 0xFC, 0x3F, 0xFC, 0x3F, 0xFC, 0x3F, 0xF8, 0x3F, 0xF0, 0x3C, 
  0xE0, 0x38, 0x80, 0x10, 0x00, 0x00, 0x00, 0x00, };
