#define scorpio_width 16
#define scorpio_height 16
static char scorpio_bits[] = {
  0x0C, 0x30, 0x04, 0x60, 0x07, 0xC0, 0x03, 0xE0, 0xC7, 0xF1, 0xEE, 0xEF, 
  0xF0, 0x1F, 0xFC, 0x0F, 0xFF, 0xF3, 0xCF, 0xF7, 0xCD, 0x73, 0xCC, 0x47, 
  0xC3, 0xC3, 0x83, 0x87, 0x80, 0x0F, 0x00, 0x0F, };
