#define shroom_width 16
#define shroom_height 16
static char shroom_bits[] = {
  0xF0, 0x0F, 0xF0, 0x0F, 0x20, 0x24, 0x04, 0x20, 0x03, 0xC0, 0x03, 0xC0, 
  0x03, 0xC0, 0x07, 0xE0, 0xFF, 0xFF, 0xFF, 0xFF, 0xF0, 0x1F, 0xF8, 0x0F, 
  0xF0, 0x07, 0xF0, 0x0F, 0xF0, 0x0F, 0xF0, 0x0F, };
