#define spkr_01_width 23
#define spkr_01_height 23
static unsigned char spkr_01_bits[] = {
   0x00, 0x0e, 0x00, 0x00, 0x0f, 0x00, 0x80, 0x0f, 0x07, 0xe0, 0x0f, 0x0f,
   0xe0, 0x0f, 0x1e, 0xff, 0x0f, 0x3c, 0xff, 0x0f, 0x38, 0xff, 0x0f, 0x38,
   0xff, 0x0f, 0x70, 0xff, 0x0f, 0x70, 0xff, 0xef, 0x73, 0xff, 0xef, 0x73,
   0xff, 0xef, 0x73, 0xff, 0xef, 0x73, 0xff, 0x0f, 0x70, 0xff, 0x0f, 0x70,
   0xff, 0x0f, 0x70, 0xff, 0x0f, 0x78, 0xf0, 0x0f, 0x3c, 0xe0, 0x0f, 0x1e,
   0x80, 0x0f, 0x1e, 0x00, 0x0f, 0x07, 0x00, 0x0e, 0x00 };
