#define spkr_02_width 16
#define spkr_02_height 16
static char spkr_02_bits[] = {
  0xC0, 0x00, 0xE0, 0x00, 0xF0, 0x00, 0xF9, 0x00, 0xFF, 0x01, 0xFF, 0x01, 
  0xFF, 0x01, 0xFF, 0x03, 0xFF, 0x03, 0xFF, 0x03, 0xFF, 0x00, 0xFF, 0x00, 
  0xFC, 0x00, 0xE0, 0x00, 0xE0, 0x00, 0xE0, 0x00, };
