#define spkr_03_width 16
#define spkr_03_height 16
static char spkr_03_bits[] = {
  0xF0, 0x10, 0xF0, 0x20, 0x2E, 0x80, 0x0F, 0xC3, 0x0F, 0xC3, 0x1F, 0xC7, 
  0x3F, 0xE3, 0x3F, 0xC3, 0x3F, 0xC2, 0x1F, 0xC3, 0x1F, 0xE3, 0x07, 0xC3, 
  0x0F, 0xC2, 0x0B, 0xC2, 0xF0, 0x10, 0xF0, 0x20, };
