#define spkr_01_width 16
#define spkr_01_height 16
static char spkr_01_bits[] = {
  0xC0, 0x00, 0xE0, 0x00, 0x70, 0x00, 0xF0, 0x20, 0xFF, 0x40, 0xFF, 0xE0, 
  0xFF, 0xC4, 0xFF, 0xDC, 0xFF, 0xDE, 0xFF, 0xC8, 0xFF, 0xE0, 0xFF, 0xC0, 
  0xF8, 0x10, 0xF0, 0x00, 0xE0, 0x00, 0xC0, 0x00, };
