#define stop_width 16
#define stop_height 16
static char stop_bits[] = {
  0x00, 0x00, 0x00, 0x00, 0xDC, 0x1B, 0xFC, 0x3F, 0xF8, 0x3F, 0xFC, 0x3F, 
  0xFC, 0x3F, 0xFC, 0x3F, 0xFC, 0x3F, 0xFC, 0x3F, 0xFC, 0x1F, 0xFC, 0x3F, 
  0xFC, 0x3F, 0xE8, 0x1D, 0x00, 0x00, 0x00, 0x00, };
