#define tall_width 16
#define tall_height 16
static char tall_bits[] = {
  0x7F, 0xFC, 0xFF, 0xFE, 0xFF, 0xFC, 0xFF, 0xB8, 0x7F, 0x00, 0xFF, 0x60, 
  0x7F, 0xFC, 0xFF, 0xFE, 0xFF, 0xFC, 0xFF, 0xFC, 0x7F, 0x60, 0xFF, 0x00, 
  0xFF, 0xD8, 0xFF, 0xFE, 0xFF, 0xFC, 0xFF, 0xFC, };
