#define temp_width 16
#define temp_height 16
static char temp_bits[] = {
  0xC0, 0xF8, 0xC0, 0xF8, 0x00, 0xFC, 0x00, 0xFE, 0x00, 0x7F, 0x8C, 0x3F, 
  0xC0, 0x1E, 0xC0, 0x0D, 0xBC, 0x03, 0x7C, 0x01, 0x67, 0x00, 0xC7, 0x00, 
  0xE3, 0x00, 0x6F, 0x00, 0x3E, 0x00, 0x3C, 0x00, };
