#define term_width 16
#define term_height 10
static char term_bits[] = {
  0x00, 0x00, 0xFC, 0x3F, 0x7E, 0x14, 0x3C, 0x20, 0x34, 0x20, 0x04, 0x20, 
  0x0C, 0x20, 0xDC, 0x34, 0xFE, 0x3F, 0x00, 0x04, };
