#define test_width 16
#define test_height 16
static char test_bits[] = {
  0xFC, 0x00, 0xFE, 0x01, 0x5F, 0x03, 0x0F, 0x01, 0x03, 0x0C, 0x07, 0x08, 
  0x03, 0x10, 0x07, 0x30, 0x0E, 0xE0, 0x08, 0xC0, 0x18, 0xC0, 0x20, 0xE0, 
  0xC0, 0xF1, 0xC0, 0xFB, 0x00, 0x7F, 0x00, 0x3F, };
