#define time_width 16
#define time_height 10
static char time_bits[] = {
  0x80, 0x7F, 0xC0, 0x70, 0x60, 0xC2, 0x20, 0xC6, 0x20, 0x82, 0x30, 0x8E, 
  0x20, 0xCE, 0x20, 0xC4, 0x40, 0x74, 0x80, 0x7F, };
