#define usb_width 16
#define usb_height 16
static char usb_bits[] = {
  0x00, 0x3F, 0x00, 0x3F, 0x80, 0xE9, 0x40, 0xE0, 0x30, 0xF0, 0x10, 0xF8, 
  0x0C, 0xFC, 0x88, 0xFC, 0xFC, 0x7F, 0xF8, 0x3F, 0x9C, 0x1F, 0x0C, 0x0F, 
  0xC7, 0x00, 0x87, 0x00, 0x3F, 0x00, 0x3F, 0x00, };
