#define usb_02_width 16
#define usb_02_height 16
static char usb_02_bits[] = {
  0x00, 0x07, 0x00, 0x03, 0x00, 0x27, 0x80, 0x37, 0xB0, 0x3F, 0xB8, 0x33, 
  0xB0, 0x3B, 0x30, 0x3F, 0x78, 0x3F, 0xF0, 0x0F, 0xE0, 0x07, 0xC0, 0x07, 
  0x80, 0x03, 0x00, 0x07, 0x80, 0x07, 0x80, 0x03, };
