#define volume50_width 16
#define volume50_height 10
static char volume50_bits[] = {
  0x30, 0x80, 0x30, 0x00, 0x3C, 0x00, 0xBF, 0x06, 0xFF, 0x02, 0xBF, 0x06, 
  0x3F, 0x03, 0x7E, 0x02, 0x30, 0x00, 0x30, 0x80, };
