#define volume25_width 16
#define volume25_height 10
static char volume25_bits[] = {
  0x30, 0x80, 0x38, 0x00, 0x38, 0x00, 0xBF, 0x00, 0xBF, 0x00, 0xBF, 0x00, 
  0xFF, 0x00, 0x3E, 0x00, 0x38, 0x00, 0x30, 0x80, };
