#define volume75_width 16
#define volume75_height 10
static char volume75_bits[] = {
  0x30, 0x80, 0x38, 0x08, 0x38, 0x1E, 0x7F, 0x1C, 0xFF, 0x08, 0xBF, 0x0E, 
  0xBF, 0x1F, 0x3C, 0x08, 0x38, 0x00, 0x30, 0x80, };
