#define volume0_width 16
#define volume0_height 10
static char volume0_bits[] = {
  0x70, 0x80, 0xF0, 0x40, 0x3E, 0x00, 0x3F, 0x12, 0x3F, 0x08, 0x3F, 0x0C, 
  0x3F, 0x33, 0x7C, 0x01, 0x38, 0x80, 0x70, 0x80, };
