#define volume100_width 16
#define volume100_height 10
static char volume100_bits[] = {
  0x30, 0xE0, 0x30, 0x40, 0x38, 0x70, 0x3F, 0x6A, 0xFF, 0x02, 0xBF, 0x5E, 
  0x3F, 0x7A, 0x3C, 0x18, 0x30, 0xC0, 0x30, 0xC0, };
