#define wifi_02_width 16
#define wifi_02_height 16
static char wifi_02_bits[] = {
  0x00, 0x70, 0x00, 0x70, 0x00, 0xE0, 0x00, 0xE7, 0x30, 0xEE, 0x70, 0xCC, 
  0xE3, 0xCC, 0xC3, 0xFE, 0xC3, 0xFE, 0xC3, 0xCC, 0x11, 0xDC, 0x30, 0xEC, 
  0x00, 0xE6, 0x00, 0xE3, 0x00, 0x70, 0x00, 0x30, };
