#define wifi_width 16
#define wifi_height 16
static char wifi_bits[] = {
  0x00, 0xC0, 0x00, 0xC0, 0x00, 0xCC, 0x00, 0xDE, 0x80, 0xEE, 0xC0, 0xCF, 
  0xCF, 0xED, 0xCF, 0xCF, 0xEF, 0xEF, 0xCD, 0xCD, 0xC0, 0xEC, 0x40, 0xCE, 
  0x00, 0xCE, 0x00, 0xEC, 0x00, 0xE0, 0x00, 0xC0, };
