#define wifi_01_width 16
#define wifi_01_height 16
static char wifi_01_bits[] = {
  0x00, 0xC0, 0x00, 0xC0, 0x00, 0xEC, 0x00, 0xCC, 0x80, 0xCE, 0xC0, 0xEC, 
  0xCF, 0xDC, 0xEF, 0xEE, 0xEF, 0xEC, 0xCF, 0xCD, 0xE2, 0xFE, 0x40, 0xCC, 
  0x00, 0xEC, 0x00, 0xC0, 0x00, 0xE0, 0x00, 0xE0, };
