#define wireless3_width 16
#define wireless3_height 10
static char wireless3_bits[] = {
  0x00, 0x00, 0x00, 0x00, 0x00, 0x00, 0x00, 0x00, 0xC0, 0x01, 0x80, 0x01, 
  0xC0, 0x03, 0xB8, 0x01, 0xFD, 0x03, 0xFB, 0x03, };
