#define wireless2_width 16
#define wireless2_height 10
static char wireless2_bits[] = {
  0x00, 0x00, 0x00, 0x00, 0x00, 0x00, 0x00, 0x00, 0x00, 0x00, 0x00, 0x00, 
  0x08, 0x00, 0x38, 0x00, 0x39, 0x00, 0x3F, 0x00, };
