#define wireless4_width 16
#define wireless4_height 10
static char wireless4_bits[] = {
  0x00, 0x00, 0x00, 0x00, 0x00, 0x1C, 0x00, 0x1C, 0x80, 0x1F, 0x80, 0x1D, 
  0xC0, 0x1D, 0xF8, 0x1F, 0xF8, 0x1F, 0xFB, 0x1F, };
