#define wireless5_width 16
#define wireless5_height 10
static char wireless5_bits[] = {
  0x00, 0xE0, 0x00, 0xC0, 0x00, 0xF8, 0x00, 0xFC, 0x80, 0xCF, 0x80, 0xFD, 
  0x80, 0xFD, 0xF8, 0xEF, 0xB8, 0xFD, 0xFB, 0xEF, };
