#define www_width 16
#define www_height 10
static char www_bits[] = {
  0x00, 0x00, 0x24, 0x25, 0xE8, 0x17, 0xC8, 0x13, 0xF0, 0x1F, 0xF0, 0x0D, 
  0xF0, 0x07, 0xE0, 0x07, 0x20, 0x06, 0x00, 0x00, };
